<svg class="heart" width="34" height="31" viewBox="0 0 34 31" xmlns="http://www.w3.org/2000/svg">
<path d="M16.5217 4.07536L16.9221 4.61093L17.3225 4.07536C18.9418 1.90968 21.5376 0.5 24.4355 0.5C29.3518 0.5 33.3442 4.50664 33.3442 9.46527C33.3442 11.4259 33.0315 13.2367 32.4885 14.9162L32.4875 14.9194C31.1864 19.0393 28.5246 22.3477 25.6685 24.8038C22.8101 27.2619 19.7857 28.8416 17.8101 29.5142L17.8101 29.5142L17.8048 29.5161C17.5873 29.5929 17.2671 29.6399 16.9221 29.6399C16.5771 29.6399 16.2569 29.5929 16.0394 29.5161L16.0394 29.516L16.0341 29.5142C14.0585 28.8416 11.0341 27.2619 8.17575 24.8038C5.31959 22.3477 2.65782 19.0393 1.35674 14.9194L1.35675 14.9194L1.3557 14.9162C0.812673 13.2367 0.5 11.4259 0.5 9.46527C0.5 4.50664 4.49237 0.5 9.40869 0.5C12.3066 0.5 14.9024 1.90968 16.5217 4.07536Z"/>
</svg>
