<svg width="133" height="23" viewBox="0 0 133 23" fill="none" xmlns="http://www.w3.org/2000/svg">
<path d="M76.5388 13.6557C76.3257 12.3015 75.5348 11.4124 75.076 10.9922C75.1413 10.5975 75.1624 10.1422 75.0837 9.64974C74.8226 8.01023 73.594 6.71465 72.1485 6.22808C70.9507 5.82357 69.8756 6.06393 69.269 6.27888C68.958 5.87243 68.3111 5.16504 67.2649 4.8172C65.7157 4.29936 64.0207 4.81329 62.9303 5.89588C62.0818 6.7381 61.7804 7.74252 61.6691 8.39911C61.5942 8.47922 61.5174 8.55934 61.4464 8.64337C60.9262 8.73131 60.2274 8.9443 59.569 9.46605C58.2809 10.4861 57.7549 12.2038 58.0275 13.7299C58.3174 15.3499 59.4231 16.282 59.7763 16.5517C59.6131 17.0695 59.4596 17.8707 59.6611 18.7872C60.0182 20.4072 61.3197 21.6265 62.7902 22.0252C64.2472 22.4219 65.4758 21.9079 65.9519 21.6676C66.3454 22.033 67.0249 22.5372 67.9771 22.7248C69.5781 23.0413 71.1964 22.3144 72.1447 21.1009C72.807 20.2548 73.0162 19.3324 73.0738 18.6719C73.0776 18.668 73.0796 18.6641 73.0834 18.6602C73.596 18.5762 74.2678 18.3749 74.909 17.8883C76.2182 16.8976 76.7807 15.1897 76.5388 13.6596V13.6557ZM72.4077 13.814C72.4077 14.879 72.1812 15.8306 71.73 16.665C71.2789 17.5014 70.6569 18.1619 69.8622 18.6485C69.0675 19.135 68.1652 19.3793 67.1555 19.3793C66.1457 19.3793 65.2377 19.135 64.4353 18.6485C63.6329 18.1619 63.0013 17.5014 62.5406 16.665C62.0799 15.8287 61.8495 14.879 61.8495 13.814C61.8495 12.749 62.0799 11.7934 62.5406 10.9492C63.0013 10.1051 63.6329 9.4387 64.4353 8.95212C65.2377 8.46555 66.1438 8.22128 67.1555 8.22128C68.1671 8.22128 69.0675 8.46555 69.8622 8.95212C70.655 9.4387 71.2789 10.1051 71.73 10.9492C72.1812 11.7954 72.4077 12.749 72.4077 13.814Z" fill="#C0438B"/>
<path d="M93.8025 13.1433C93.9676 12.7799 94.1039 12.3461 94.1538 11.8478C94.3208 10.1965 93.4665 8.61954 92.1976 7.76559C91.1457 7.0582 90.0457 7.00349 89.4045 7.04843C89.2087 6.57358 88.7634 5.71963 87.8458 5.10604C86.4828 4.19542 84.7148 4.24231 83.3845 4.9966C82.296 5.61411 81.7432 6.57163 81.484 7.17154C81.4341 7.20085 81.3861 7.23212 81.3381 7.26338C80.8102 7.1989 80.0404 7.20281 79.2265 7.55064C77.7234 8.19355 76.7732 9.7119 76.6465 11.2576C76.5121 12.8971 77.3414 14.0911 77.612 14.4467C77.3222 14.904 76.967 15.6368 76.9267 16.5748C76.8557 18.2338 77.8002 19.7561 79.1171 20.5319C80.4224 21.3018 81.7412 21.1318 82.2615 21.0263C82.5475 21.4835 83.0754 22.1499 83.945 22.5837C85.4097 23.3145 87.1585 23.041 88.3852 22.1225C89.1991 21.5128 89.6349 20.7273 89.8691 20.1176C89.9113 20.0863 89.9536 20.057 89.9958 20.0257C90.5045 20.0707 91.1706 20.0414 91.8732 19.758C93.3897 19.1483 94.3707 17.6495 94.53 16.1077C94.6702 14.7438 94.1365 13.6749 93.8006 13.1472L93.8025 13.1433ZM90.7041 13.8116C90.7041 14.8766 90.4776 15.8283 90.0265 16.6627C89.5754 17.4991 88.9534 18.1596 88.1587 18.6461C87.3639 19.1327 86.4617 19.377 85.452 19.377C84.4422 19.377 83.5342 19.1327 82.7318 18.6461C81.9294 18.1596 81.2978 17.4991 80.8371 16.6627C80.3764 15.8263 80.146 14.8766 80.146 13.8116C80.146 12.7466 80.3764 11.7911 80.8371 10.9469C81.2978 10.1027 81.9294 9.43637 82.7318 8.94979C83.5342 8.46321 84.4403 8.21895 85.452 8.21895C86.4636 8.21895 87.3639 8.46321 88.1587 8.94979C88.9515 9.43637 89.5754 10.1027 90.0265 10.9469C90.4776 11.793 90.7041 12.7466 90.7041 13.8116ZM77.9384 14.1751L77.8731 14.0735L77.9326 13.9719C77.9326 14.0403 77.9365 14.1067 77.9384 14.1751Z" fill="#C0438B"/>
<path d="M1.39751 21.3703C1.00398 21.3703 0.671882 21.2335 0.403129 20.9599C0.134376 20.6863 0 20.3483 0 19.9477V1.4226C0 1.00246 0.134376 0.660493 0.403129 0.396686C0.671882 0.13288 1.00398 0 1.39751 0H6.23506C7.57883 0 8.77094 0.287256 9.80948 0.861767C10.848 1.43628 11.66 2.22574 12.2417 3.22821C12.8233 4.23067 13.1151 5.39924 13.1151 6.72999C13.1151 7.97086 12.8233 9.07494 12.2417 10.0403C11.66 11.0076 10.848 11.7638 9.80948 12.311C8.76902 12.8581 7.57883 13.1317 6.23506 13.1317H2.79503V19.9457C2.79503 20.3463 2.66449 20.6844 2.40534 20.9579C2.14618 21.2315 1.81024 21.3683 1.39751 21.3683V21.3703ZM2.79503 10.5073H6.23506C7.0586 10.5073 7.78423 10.3471 8.41196 10.0285C9.03969 9.71003 9.53113 9.26253 9.8901 8.68802C10.2491 8.11351 10.4276 7.46083 10.4276 6.73195C10.4276 5.9288 10.2491 5.2175 9.8901 4.59805C9.53113 3.97859 9.03969 3.49397 8.41196 3.14809C7.78423 2.80221 7.0586 2.62829 6.23506 2.62829H2.79503V10.5093V10.5073ZM12.5527 21.3703C12.3012 21.3703 12.0728 21.3155 11.8674 21.2061C11.662 21.0967 11.4873 20.9228 11.3433 20.6863L6.50574 12.7506L9.22014 11.9573L13.6277 19.1817C13.9502 19.7112 13.9943 20.2076 13.7621 20.6726C13.5298 21.1377 13.1267 21.3703 12.5527 21.3703Z" fill="#C0438B"/>
<path d="M23.6272 21.4797C22.1395 21.4797 20.8187 21.1553 19.6631 20.5085C18.5075 19.8617 17.6014 18.9667 16.9487 17.8274C16.2941 16.6882 15.9678 15.3789 15.9678 13.9016C15.9678 12.4243 16.2768 11.0877 16.895 9.94843C17.5131 8.80918 18.3693 7.91419 19.4615 7.26737C20.5538 6.62056 21.8093 6.29618 23.2241 6.29618C24.6389 6.29618 25.8214 6.61079 26.8254 7.24002C27.8294 7.86924 28.5953 8.73687 29.1232 9.839C29.6511 10.9431 29.916 12.2152 29.916 13.6554C29.916 14.0013 29.7989 14.2885 29.5666 14.5172C29.3344 14.7458 29.0368 14.8591 28.6798 14.8591H17.8471V12.6705H28.5991L27.4972 13.4365C27.48 12.524 27.2995 11.7091 26.9597 10.988C26.62 10.2669 26.1362 9.6983 25.5085 9.27816C24.8808 8.85803 24.1186 8.64894 23.2241 8.64894C22.2028 8.64894 21.3294 8.87757 20.6037 9.33288C19.8781 9.78819 19.3272 10.4135 18.9509 11.2069C18.5747 12.0003 18.3865 12.8992 18.3865 13.9016C18.3865 14.9041 18.6111 15.7991 19.0584 16.5827C19.5057 17.3663 20.1238 17.9877 20.9128 18.443C21.7018 18.8983 22.6059 19.1269 23.6272 19.1269C24.182 19.1269 24.7521 19.0214 25.3338 18.8123C25.9154 18.6032 26.3858 18.3609 26.7447 18.0873C27.0135 17.8861 27.3053 17.7825 27.6182 17.7727C27.9311 17.763 28.2056 17.8587 28.4379 18.06C28.7431 18.3336 28.9044 18.6345 28.9216 18.9628C28.9389 19.2911 28.7969 19.5744 28.4916 19.8109C27.8831 20.3033 27.1248 20.7039 26.2207 21.0146C25.3146 21.3253 24.4507 21.4797 23.6272 21.4797Z" fill="#C0438B"/>
<path d="M40.8024 21.4797C39.4049 21.4797 38.1495 21.1475 37.0399 20.4811C35.9284 19.8148 35.0511 18.9081 34.4061 17.759C33.7611 16.61 33.429 15.3144 33.4117 13.8743V1.39524C33.4117 0.975106 33.5423 0.638997 33.8014 0.383008C34.0606 0.127018 34.3888 0 34.7824 0C35.1759 0 35.5253 0.127018 35.7768 0.383008C36.0282 0.638997 36.153 0.975106 36.153 1.39524V8.78377C36.7807 8.01776 37.5371 7.41198 38.424 6.96449C39.3109 6.51699 40.2822 6.29422 41.3399 6.29422C42.6472 6.29422 43.8221 6.62642 44.8606 7.29278C45.8991 7.95913 46.7188 8.86194 47.3197 10.0012C47.9205 11.1404 48.22 12.4321 48.22 13.8723C48.22 15.3125 47.8937 16.6081 47.2391 17.7571C46.5845 18.9061 45.7014 19.8148 44.5918 20.4792C43.4804 21.1455 42.2172 21.4777 40.8024 21.4777V21.4797ZM40.8024 19.0175C41.7162 19.0175 42.532 18.7947 43.2481 18.3472C43.9641 17.8997 44.5343 17.2842 44.9547 16.5006C45.3751 15.717 45.5862 14.8415 45.5862 13.8743C45.5862 12.907 45.3751 12.0139 44.9547 11.2479C44.5343 10.4819 43.9641 9.87613 43.2481 9.42863C42.532 8.98114 41.7162 8.75837 40.8024 8.75837C39.8887 8.75837 39.0959 8.98114 38.3702 9.42863C37.6446 9.87613 37.0744 10.4819 36.6636 11.2479C36.2509 12.0139 36.0455 12.8894 36.0455 13.8743C36.0455 14.8591 36.2509 15.717 36.6636 16.5006C37.0764 17.2842 37.6446 17.9017 38.3702 18.3472C39.0959 18.7947 39.906 19.0175 40.8024 19.0175Z" fill="#C0438B"/>
<path d="M55.8027 21.3703C55.0137 21.3703 54.3149 21.1514 53.7064 20.7137C53.0979 20.276 52.6218 19.678 52.282 18.9218C51.9422 18.1655 51.7714 17.294 51.7714 16.3091V1.36788C51.7714 0.96729 51.8962 0.638997 52.1476 0.383008C52.3991 0.127018 52.7216 0 53.1151 0C53.5087 0 53.8312 0.127018 54.0827 0.383008C54.3341 0.638997 54.4589 0.96729 54.4589 1.36788V16.3071C54.4589 16.9813 54.5837 17.5382 54.8352 17.976C55.0866 18.4137 55.4091 18.6325 55.8027 18.6325H56.4746C56.8335 18.6325 57.1234 18.7596 57.348 19.0155C57.5726 19.2715 57.6839 19.5998 57.6839 20.0004C57.6839 20.401 57.5131 20.7293 57.1733 20.9853C56.8335 21.2413 56.3939 21.3683 55.8564 21.3683H55.8027V21.3703Z" fill="#C0438B"/>
<path d="M98.0295 21.3976C97.636 21.3976 97.3077 21.2647 97.0486 21.0009C96.7894 20.7371 96.6589 20.403 96.6589 20.0024V7.82625C96.6589 7.40612 96.7875 7.07001 97.0486 6.81402C97.3077 6.55803 97.636 6.43101 98.0295 6.43101C98.423 6.43101 98.7724 6.55803 99.0239 6.81402C99.2754 7.07001 99.4001 7.40612 99.4001 7.82625V20.0024C99.4001 20.403 99.2754 20.7371 99.0239 21.0009C98.7724 21.2647 98.4422 21.3976 98.0295 21.3976ZM107.008 21.3976C106.614 21.3976 106.286 21.2647 106.027 21.0009C105.768 20.7371 105.637 20.403 105.637 20.0024V12.1761C105.637 11.0271 105.359 10.1751 104.804 9.61818C104.249 9.06126 103.522 8.78377 102.627 8.78377C101.733 8.78377 100.924 9.11206 100.316 9.76865C99.7073 10.4252 99.4021 11.2655 99.4021 12.2856H97.7089C97.7089 11.0994 97.9412 10.0559 98.4077 9.1531C98.8742 8.2503 99.5192 7.54291 100.343 7.03288C101.166 6.52285 102.107 6.26686 103.165 6.26686C104.222 6.26686 105.09 6.4955 105.879 6.95081C106.668 7.40612 107.28 8.07833 107.72 8.9616C108.16 9.84681 108.378 10.9177 108.378 12.1761V20.0024C108.378 20.403 108.254 20.7371 108.002 21.0009C107.751 21.2647 107.42 21.3976 107.008 21.3976ZM115.959 21.3976C115.566 21.3976 115.237 21.2647 114.978 21.0009C114.719 20.7371 114.589 20.403 114.589 20.0024V12.1761C114.589 11.0271 114.31 10.1751 113.755 9.61818C113.201 9.06126 112.473 8.78377 111.578 8.78377C110.684 8.78377 109.88 9.11206 109.281 9.76865C108.68 10.4252 108.38 11.2655 108.38 12.2856H106.15C106.15 11.0994 106.401 10.0559 106.902 9.1531C107.403 8.2503 108.108 7.54291 109.012 7.03288C109.916 6.52285 110.951 6.26686 112.116 6.26686C113.137 6.26686 114.041 6.4955 114.83 6.95081C115.619 7.40612 116.232 8.07833 116.671 8.9616C117.111 9.84681 117.33 10.9177 117.33 12.1761V20.0024C117.33 20.403 117.205 20.7371 116.954 21.0009C116.702 21.2647 116.372 21.3976 115.959 21.3976Z" fill="#C0438B"/>
<path d="M127.22 21.4797C125.966 21.4797 124.805 21.2843 123.74 20.8915C122.674 20.4987 121.845 20.0024 121.254 19.4005C120.985 19.1093 120.872 18.7752 120.918 18.402C120.962 18.0287 121.136 17.7219 121.442 17.4855C121.801 17.1943 122.154 17.0712 122.503 17.1161C122.853 17.1611 123.152 17.3213 123.404 17.5949C123.709 17.9408 124.196 18.2652 124.868 18.5661C125.54 18.867 126.289 19.0175 127.112 19.0175C128.151 19.0175 128.944 18.8436 129.491 18.4977C130.038 18.1518 130.32 17.7043 130.337 17.1572C130.355 16.61 130.099 16.1352 129.571 15.7346C129.042 15.334 128.08 15.0057 126.682 14.7497C124.872 14.3843 123.559 13.8371 122.745 13.1082C121.929 12.3794 121.522 11.4844 121.522 10.4272C121.522 9.49703 121.791 8.7271 122.329 8.11546C122.866 7.50382 123.555 7.04851 124.398 6.74758C125.241 6.44664 126.118 6.29618 127.032 6.29618C128.214 6.29618 129.262 6.48768 130.176 6.87069C131.09 7.2537 131.816 7.78326 132.353 8.45743C132.605 8.7486 132.72 9.05539 132.702 9.37392C132.685 9.69244 132.532 9.96211 132.246 10.181C131.96 10.3822 131.618 10.4448 131.224 10.3725C130.831 10.3002 130.499 10.136 130.23 9.88003C129.783 9.44231 129.299 9.14138 128.779 8.97723C128.258 8.81308 127.66 8.73101 126.978 8.73101C126.189 8.73101 125.521 8.8678 124.976 9.14138C124.429 9.41495 124.156 9.81555 124.156 10.3451C124.156 10.6734 124.241 10.9704 124.411 11.2342C124.582 11.498 124.918 11.7364 125.419 11.9455C125.92 12.1546 126.656 12.3598 127.623 12.5611C128.967 12.8347 130.028 13.1805 130.808 13.6007C131.587 14.0208 132.148 14.5074 132.487 15.0643C132.827 15.6212 132.998 16.2641 132.998 16.993C132.998 17.8314 132.779 18.5895 132.34 19.2637C131.9 19.9379 131.255 20.4772 130.405 20.8778C129.554 21.2784 128.491 21.4797 127.22 21.4797Z" fill="#C0438B"/>
</svg>
