<svg class="socialmedia" width="28" height="28" viewBox="0 0 28 28" xmlns="http://www.w3.org/2000/svg">
<path d="M13.9323 0C15.8608 0 17.673 0.365764 19.3689 1.09729C21.0647 1.82882 22.5443 2.82636 23.8079 4.0899C25.0714 5.35345 26.069 6.82759 26.8005 8.51232C27.532 10.197 27.8978 12.0037 27.8978 13.9323C27.8978 15.8608 27.532 17.673 26.8005 19.3689C26.069 21.0647 25.0714 22.5443 23.8079 23.8079C22.5443 25.0714 21.0647 26.069 19.3689 26.8005C17.673 27.532 15.8608 27.8978 13.9323 27.8978C12.0037 27.8978 10.197 27.532 8.51232 26.8005C6.82759 26.069 5.35345 25.0714 4.0899 23.8079C2.82636 22.5443 1.82882 21.0647 1.09729 19.3689C0.365764 17.673 0 15.8608 0 13.9323C0 12.0037 0.365764 10.197 1.09729 8.51232C1.82882 6.82759 2.82636 5.35345 4.0899 4.0899C5.35345 2.82636 6.82759 1.82882 8.51232 1.09729C10.197 0.365764 12.0037 0 13.9323 0ZM19.186 6.08498H16.2266C15.6503 6.08498 15.1182 6.18473 14.6305 6.38424C14.1429 6.58375 13.7161 6.84976 13.3504 7.18227C12.9846 7.51478 12.702 7.89163 12.5025 8.31281C12.303 8.73399 12.2032 9.15518 12.2032 9.57636V11.3387H9.57636V14.7968H12.2032V21.7796H15.6946V14.7968H18.2882V11.3387H15.6946V10.4409C15.6946 10.1749 15.7999 9.96429 16.0105 9.80912C16.2211 9.65395 16.4039 9.57636 16.5591 9.57636H19.186V6.08498Z"/>
</svg>
