<svg width="28" height="28" viewBox="0 0 28 28" fill="none" xmlns="http://www.w3.org/2000/svg">
<path d="M19.6127 9.66397C19.4917 9.35048 19.3063 9.06582 19.0686 8.82833C18.8308 8.59083 18.546 8.40577 18.2324 8.28506C17.8005 8.12512 17.3444 8.04059 16.884 8.03515C16.1182 8.00027 15.8887 7.99155 13.9489 7.99155C12.0091 7.99155 11.7796 8.00027 11.0138 8.03515C10.5529 8.04042 10.0963 8.12496 9.66398 8.28506C9.35049 8.4061 9.06583 8.59146 8.82833 8.82921C8.59084 9.06695 8.40578 9.35181 8.28507 9.66542C8.12513 10.0973 8.04059 10.5534 8.03515 11.0138C8.00028 11.7796 7.99156 12.0091 7.99156 13.9489C7.99156 15.8887 8.00028 16.1182 8.03515 16.884C8.04043 17.3449 8.12497 17.8015 8.28507 18.2338C8.40611 18.5473 8.59147 18.832 8.82922 19.0695C9.06696 19.307 9.35181 19.492 9.66543 19.6127C10.0973 19.7727 10.5534 19.8572 11.0138 19.8626C11.7796 19.8975 12.0091 19.9048 13.9489 19.9048C15.8887 19.9048 16.1182 19.8975 16.884 19.8612C17.3448 19.8564 17.8015 19.7723 18.2338 19.6127C18.5473 19.4917 18.832 19.3063 19.0695 19.0686C19.307 18.8308 19.492 18.546 19.6127 18.2324C19.7727 17.8005 19.8572 17.3444 19.8627 16.884C19.8975 16.1182 19.9048 15.8887 19.9048 13.9489C19.9048 12.0091 19.8975 11.7796 19.8612 11.0138C19.8564 10.5529 19.7723 10.0963 19.6127 9.66397ZM13.9489 17.6802C13.2109 17.6802 12.4895 17.4614 11.8759 17.0514C11.2623 16.6414 10.784 16.0586 10.5016 15.3768C10.2192 14.695 10.1453 13.9448 10.2893 13.2209C10.4332 12.4971 10.7886 11.8323 11.3105 11.3104C11.8323 10.7886 12.4971 10.4332 13.221 10.2893C13.9448 10.1453 14.695 10.2192 15.3768 10.5016C16.0586 10.784 16.6414 11.2623 17.0514 11.8759C17.4614 12.4895 17.6802 13.2109 17.6802 13.9489C17.6802 14.9385 17.2871 15.8876 16.5874 16.5873C15.8876 17.2871 14.9385 17.6802 13.9489 17.6802ZM17.827 10.9426C17.6546 10.9426 17.486 10.8915 17.3426 10.7957C17.1993 10.6999 17.0875 10.5637 17.0215 10.4044C16.9556 10.2451 16.9383 10.0698 16.9719 9.90073C17.0056 9.73162 17.0886 9.57628 17.2105 9.45435C17.3325 9.33243 17.4878 9.2494 17.6569 9.21576C17.826 9.18212 18.0013 9.19938 18.1606 9.26537C18.3199 9.33135 18.4561 9.44309 18.5519 9.58646C18.6477 9.72983 18.6988 9.89839 18.6988 10.0708C18.6988 10.302 18.6069 10.5238 18.4434 10.6873C18.2799 10.8508 18.0582 10.9426 17.827 10.9426ZM16.3711 13.9489C16.3711 14.428 16.229 14.8963 15.9629 15.2946C15.6967 15.6929 15.3184 16.0034 14.8758 16.1867C14.4332 16.37 13.9462 16.418 13.4764 16.3245C13.0065 16.2311 12.5749 16.0004 12.2362 15.6616C11.8974 15.3229 11.6667 14.8913 11.5733 14.4214C11.4798 13.9516 11.5278 13.4646 11.7111 13.022C11.8944 12.5794 12.2049 12.2011 12.6032 11.9349C13.0015 11.6688 13.4698 11.5267 13.9489 11.5267C14.5913 11.5267 15.2074 11.7819 15.6616 12.2362C16.1159 12.6904 16.3711 13.3065 16.3711 13.9489ZM13.9489 0C11.1901 0 8.49319 0.818088 6.19931 2.35081C3.90543 3.88354 2.11756 6.06206 1.0618 8.61088C0.00604379 11.1597 -0.270191 13.9644 0.26803 16.6702C0.806252 19.376 2.13476 21.8615 4.08554 23.8123C6.03633 25.763 8.52179 27.0915 11.2276 27.6298C13.9334 28.168 16.7381 27.8918 19.2869 26.836C21.8357 25.7802 24.0143 23.9924 25.547 21.6985C27.0797 19.4046 27.8978 16.7077 27.8978 13.9489C27.8978 10.2494 26.4282 6.70146 23.8123 4.08554C21.1963 1.46961 17.6484 0 13.9489 0ZM21.1704 16.9436C21.1581 17.5464 21.0436 18.1429 20.8318 18.7075C20.6452 19.19 20.3599 19.6282 19.994 19.994C19.6282 20.3598 19.19 20.6452 18.7075 20.8318C18.1434 21.0434 17.5474 21.1579 16.945 21.1704C16.1691 21.2052 15.9221 21.2139 13.9489 21.2139C11.9757 21.2139 11.7287 21.2052 10.9528 21.1704C10.3504 21.1579 9.75445 21.0434 9.19029 20.8318C8.70778 20.6452 8.26957 20.3598 7.90376 19.994C7.53795 19.6282 7.2526 19.19 7.06599 18.7075C6.85438 18.1433 6.73991 17.5474 6.72744 16.945C6.69257 16.1691 6.68385 15.9221 6.68385 13.9489C6.68385 11.9757 6.69257 11.7287 6.72744 10.9528C6.73944 10.3505 6.85342 9.75453 7.06454 9.19029C7.25113 8.70736 7.53663 8.26879 7.90271 7.90271C8.26879 7.53663 8.70737 7.25113 9.19029 7.06453C9.75453 6.85342 10.3505 6.73944 10.9528 6.72744C11.7287 6.69256 11.9757 6.68385 13.9489 6.68385C15.9221 6.68385 16.1691 6.69256 16.945 6.72744C17.5473 6.73944 18.1433 6.85342 18.7075 7.06453C19.1902 7.2513 19.6285 7.53687 19.9943 7.90295C20.3601 8.26902 20.6454 8.70751 20.8318 9.19029C21.0434 9.75444 21.1579 10.3504 21.1704 10.9528C21.2052 11.7287 21.214 11.9757 21.214 13.9489C21.214 15.9221 21.2052 16.1676 21.1704 16.9436Z" fill="black"/>
</svg>
