<svg class="socialmedia" width="28" height="28" viewBox="0 0 28 28" xmlns="http://www.w3.org/2000/svg">
<path d="M13.9656 0C15.8987 0 17.7097 0.366638 19.3985 1.09991C21.0872 1.83319 22.5593 2.82755 23.8148 4.08301C25.0702 5.33847 26.0646 6.81057 26.7979 8.49933C27.5312 10.1881 27.8978 11.9991 27.8978 13.9322C27.8978 15.8654 27.5312 17.6764 26.7979 19.3651C26.0646 21.0539 25.0702 22.5316 23.8148 23.7981C22.5593 25.0647 21.0872 26.0646 19.3985 26.7979C17.7097 27.5312 15.8987 27.8978 13.9656 27.8978C12.0324 27.8978 10.2214 27.5312 8.53266 26.7979C6.8439 26.0646 5.36624 25.0647 4.09968 23.7981C2.83311 22.5316 1.83319 21.0539 1.09991 19.3651C0.366638 17.6764 0 15.8654 0 13.9322C0 11.9991 0.366638 10.1881 1.09991 8.49933C1.83319 6.81057 2.83311 5.33847 4.09968 4.08301C5.36624 2.82755 6.8439 1.83319 8.53266 1.09991C10.2214 0.366638 12.0324 0 13.9656 0ZM18.3652 16.932C18.7652 16.5987 19.104 16.1987 19.3818 15.7321C19.6596 15.2655 19.8873 14.7544 20.0651 14.1989C20.2428 13.6434 20.3651 13.0823 20.4317 12.5157C20.4984 11.9491 20.4984 11.3991 20.4317 10.8658C20.3651 10.2881 20.1873 9.72701 19.8984 9.18261C19.6096 8.63821 19.2318 8.15491 18.7652 7.73272C18.2986 7.31053 17.7653 6.95501 17.1653 6.66614C16.5654 6.37727 15.9321 6.19951 15.2655 6.13285C14.2433 6.02175 13.2601 6.08841 12.3157 6.33283C11.3713 6.57726 10.5381 6.96056 9.81589 7.48274C9.09373 8.00492 8.51044 8.65487 8.06603 9.43259C7.62162 10.2103 7.39942 11.088 7.39942 12.0657C7.39942 12.999 7.56607 13.7545 7.89938 14.3322C8.23268 14.9099 8.82153 15.3543 9.6659 15.6654C9.95477 15.3988 10.1048 15.1488 10.1159 14.9155C10.127 14.6822 10.077 14.4489 9.96588 14.2155C9.85478 13.9822 9.72145 13.7378 9.56591 13.4823C9.41037 13.2267 9.32149 12.9434 9.29927 12.6323C9.21038 11.8102 9.37148 11.0269 9.78256 10.2825C10.1936 9.53814 10.7436 8.93263 11.4324 8.466C12.1213 7.99937 12.9101 7.72161 13.7989 7.63273C14.6877 7.54385 15.5765 7.75494 16.4654 8.26601C16.8876 8.51044 17.2209 8.86041 17.4653 9.31593C17.7097 9.77145 17.8819 10.2825 17.9819 10.8491C18.0819 11.4158 18.1041 12.0046 18.0486 12.6157C17.993 13.2267 17.8597 13.7878 17.6486 14.2989C17.4375 14.8099 17.1542 15.2544 16.7987 15.6321C16.4431 16.0098 16.021 16.2432 15.5321 16.332C15.221 16.3987 14.9044 16.3932 14.5822 16.3154C14.26 16.2376 14.0322 16.1321 13.8989 15.9987C13.5434 15.6654 13.3989 15.2877 13.4656 14.8655C13.5323 14.4433 13.6545 13.9878 13.8322 13.4989C14.01 13.0101 14.1711 12.5101 14.3155 11.9991C14.46 11.488 14.4322 10.9991 14.2322 10.5325C14.0544 10.1325 13.8045 9.89366 13.4823 9.81589C13.1601 9.73812 12.8434 9.77701 12.5323 9.93255C12.2213 10.0881 11.9379 10.3214 11.6824 10.6325C11.4269 10.9436 11.2658 11.2769 11.1991 11.6324C11.1547 12.0102 11.188 12.3824 11.2991 12.749C11.4102 13.1156 11.4658 13.4767 11.4658 13.8322C11.4658 14.2322 11.4102 14.66 11.2991 15.1155C11.188 15.571 11.0602 16.0376 10.9158 16.5154C10.7714 16.9931 10.6269 17.4597 10.4825 17.9153C10.3381 18.3708 10.2325 18.7985 10.1659 19.1985C10.1214 19.5096 10.0825 19.9318 10.0492 20.465C10.0159 20.9983 10.0437 21.4316 10.1325 21.7649L10.0992 21.7983H11.1991C11.5769 21.1539 11.8991 20.3984 12.1657 19.5318C12.4324 18.6652 12.6657 17.8319 12.8657 17.032C12.9768 16.9209 13.0601 16.9431 13.1156 17.0986C13.1712 17.2542 13.2545 17.3653 13.3656 17.432C13.6989 17.6986 14.0989 17.8597 14.5655 17.9153C15.0321 17.9708 15.4988 17.9652 15.9654 17.8986C16.432 17.8319 16.882 17.7097 17.3153 17.5319C17.7486 17.3542 18.0986 17.1542 18.3652 16.932Z" />
</svg>
