<svg class="socialmedia" width="28" height="28" viewBox="0 0 28 28" xmlns="http://www.w3.org/2000/svg">
<path fill-rule="evenodd" clip-rule="evenodd" d="M13.9489 0C6.24514 0 0 6.24513 0 13.9489C0 21.6527 6.24514 27.8978 13.9489 27.8978C21.6526 27.8978 27.8978 21.6527 27.8978 13.9489C27.8978 6.24513 21.6526 0 13.9489 0ZM16.6674 6.97445C16.6674 7.18172 16.6867 7.38586 16.7224 7.58342C16.8939 8.49668 17.4344 9.28038 18.1852 9.76937C18.7094 10.1127 19.3307 10.3102 20.0005 10.3102L20.0004 12.7068C18.7578 12.7068 17.6058 12.3085 16.6674 11.6349V16.509C16.6674 18.9413 14.687 20.9233 12.2568 20.9233C11.3184 20.9233 10.4447 20.6253 9.72953 20.1234C8.59049 19.3234 7.84626 18.002 7.84626 16.509C7.84626 14.0736 9.82343 12.0947 12.2536 12.098C12.4574 12.098 12.6549 12.1142 12.849 12.1401V12.7068L12.8419 12.7102L12.8489 12.7101V14.5885C12.6613 14.5302 12.4606 14.4946 12.2536 14.4946C11.1437 14.4946 10.2408 15.3982 10.2408 16.509C10.2408 17.2831 10.6809 17.9535 11.3216 18.2935C11.3276 18.3017 11.3337 18.3099 11.3398 18.318L11.3505 18.3322C11.3432 18.318 11.3346 18.304 11.3249 18.2903C11.6064 18.4393 11.9235 18.5235 12.26 18.5235C13.344 18.5235 14.2308 17.6588 14.2695 16.5836L14.2728 6.97445H16.6674Z" />
</svg>
