<svg class="socialmedia" alt="twitter logo" width="28" height="28" viewBox="0 0 28 28" xmlns="http://www.w3.org/2000/svg">
<path d="M13.9322 0C15.8654 0 17.6764 0.366638 19.3651 1.09991C21.0539 1.83319 22.5316 2.82755 23.7981 4.08301C25.0647 5.33847 26.0646 6.81057 26.7979 8.49933C27.5312 10.1881 27.8978 11.9991 27.8978 13.9322C27.8978 15.8654 27.5312 17.6764 26.7979 19.3651C26.0646 21.0539 25.0647 22.5316 23.7981 23.7981C22.5316 25.0647 21.0539 26.0646 19.3651 26.7979C17.6764 27.5312 15.8654 27.8978 13.9322 27.8978C11.9991 27.8978 10.1881 27.5312 8.49933 26.7979C6.81057 26.0646 5.33847 25.0647 4.08301 23.7981C2.82755 22.5316 1.83319 21.0539 1.09991 19.3651C0.366638 17.6764 0 15.8654 0 13.9322C0 11.9991 0.366638 10.1881 1.09991 8.49933C1.83319 6.81057 2.82755 5.33847 4.08301 4.08301C5.33847 2.82755 6.81057 1.83319 8.49933 1.09991C10.1881 0.366638 11.9991 0 13.9322 0ZM20.865 10.9325C21.5094 10.4436 22.076 9.85478 22.5649 9.16594C22.2538 9.29927 21.9372 9.41037 21.615 9.49925C21.2928 9.58813 20.9539 9.65479 20.5984 9.69923C20.9539 9.47703 21.265 9.20483 21.5316 8.88263C21.7983 8.56044 21.9872 8.21046 22.0983 7.83272C21.7649 8.01048 21.4205 8.17158 21.065 8.31601C20.7095 8.46044 20.3428 8.56599 19.9651 8.63265C19.654 8.32156 19.2874 8.06603 18.8652 7.86605C18.443 7.66606 17.9764 7.56607 17.4653 7.56607C16.9987 7.56607 16.5598 7.65495 16.1487 7.83272C15.7376 8.01048 15.3821 8.2549 15.0821 8.56599C14.7822 8.87708 14.5433 9.23816 14.3655 9.64924C14.1878 10.0603 14.0989 10.4992 14.0989 10.9658C14.0989 11.0991 14.1044 11.2324 14.1156 11.3658C14.1267 11.4991 14.1433 11.6213 14.1655 11.7324C12.7657 11.6657 11.4658 11.3213 10.2659 10.6992C9.06595 10.077 8.04381 9.24371 7.19943 8.19935C6.88834 8.71042 6.7328 9.27705 6.7328 9.89922C6.7328 10.477 6.87168 11.0158 7.14944 11.5158C7.42719 12.0157 7.78827 12.4212 8.23268 12.7323C7.65495 12.6879 7.14388 12.5435 6.69947 12.299V12.3324C6.69947 13.1767 6.96056 13.9045 7.48274 14.5155C8.00492 15.1266 8.65487 15.5099 9.43259 15.6654C9.27705 15.7099 9.12706 15.7432 8.98262 15.7654C8.83819 15.7876 8.6882 15.7988 8.53266 15.7988C8.42156 15.7988 8.31601 15.7932 8.21602 15.7821C8.11603 15.771 8.01048 15.7543 7.89938 15.7321C8.12158 16.3987 8.51599 16.9542 9.08262 17.3986C9.64924 17.843 10.3103 18.0652 11.0658 18.0652C10.4881 18.5319 9.83811 18.893 9.11595 19.1485C8.39378 19.404 7.64384 19.5318 6.86612 19.5318C6.71058 19.5318 6.56615 19.5262 6.43283 19.5151C6.2995 19.504 6.16618 19.4874 6.03286 19.4651C6.78835 19.954 7.60495 20.3317 8.48266 20.5984C9.36037 20.865 10.277 20.9983 11.2324 20.9983C12.7879 20.9983 14.1655 20.7039 15.3655 20.1151C16.5654 19.5262 17.5708 18.7707 18.3819 17.8486C19.1929 16.9264 19.8095 15.8932 20.2317 14.7488C20.6539 13.6045 20.865 12.4768 20.865 11.3658V10.9325Z" />
</svg>
