<svg width="58" height="58" viewBox="0 0 58 58" fill="none" xmlns="http://www.w3.org/2000/svg">
<path d="M28.9616 57.9238C44.9195 57.9238 57.9233 44.92 57.9233 28.9621C57.9233 13.0042 44.9195 0.00043869 28.9616 0.00043869C13.0037 0.00043869 -4.95911e-05 13.0042 -4.95911e-05 28.9621C-4.95911e-05 44.92 13.0037 57.9238 28.9616 57.9238ZM20.8813 27.4272L31.1048 17.2037C31.5392 16.7693 32.0895 16.5665 32.6398 16.5665C33.1901 16.5665 33.7403 16.7693 34.1748 17.2037C35.0146 18.0436 35.0146 19.4337 34.1748 20.2736L25.4862 28.9621L34.1748 37.6506C35.0146 38.4905 35.0146 39.8807 34.1748 40.7206C33.3349 41.5605 31.9447 41.5605 31.1048 40.7206L20.8813 30.4971C20.0125 29.6572 20.0125 28.2671 20.8813 27.4272Z" fill="white"/>
</svg>
