<svg width="58" height="58" viewBox="0 0 58 58" fill="none" xmlns="http://www.w3.org/2000/svg">
<path d="M28.9617 0C13.0038 0 0 13.0038 0 28.9617C0 44.9196 13.0038 57.9234 28.9617 57.9234C44.9196 57.9234 57.9234 44.9196 57.9234 28.9617C57.9234 13.0038 44.9196 0 28.9617 0ZM37.042 30.4967L26.8185 40.7201C26.3841 41.1546 25.8338 41.3573 25.2836 41.3573C24.7333 41.3573 24.183 41.1546 23.7486 40.7201C22.9087 39.8803 22.9087 38.4901 23.7486 37.6502L32.4371 28.9617L23.7486 20.2732C22.9087 19.4333 22.9087 18.0431 23.7486 17.2032C24.5885 16.3634 25.9786 16.3634 26.8185 17.2032L37.042 27.4267C37.9109 28.2666 37.9109 29.6568 37.042 30.4967Z" fill="white"/>
</svg>
