<svg width="58" height="58" viewBox="0 0 58 58" fill="none" xmlns="http://www.w3.org/2000/svg">
<path d="M28.9621 57.9238C44.92 57.9238 57.9238 44.92 57.9238 28.9621C57.9238 13.0042 44.92 0.00043869 28.9621 0.00043869C13.0042 0.00043869 0.00043869 13.0042 0.00043869 28.9621C0.00043869 44.92 13.0042 57.9238 28.9621 57.9238ZM20.8818 27.4272L31.1053 17.2037C31.5397 16.7693 32.09 16.5665 32.6403 16.5665C33.1905 16.5665 33.7408 16.7693 34.1752 17.2037C35.0151 18.0436 35.0151 19.4337 34.1752 20.2736L25.4867 28.9621L34.1752 37.6506C35.0151 38.4905 35.0151 39.8807 34.1752 40.7206C33.3354 41.5605 31.9452 41.5605 31.1053 40.7206L20.8818 30.4971C20.013 29.6572 20.013 28.2671 20.8818 27.4272Z" fill="#F5CC72"/>
</svg>
